<?xml version="1.0" standalone="no"?>
<!DOCTYPE svg PUBLIC "-//W3C//DTD SVG 20010904//EN"
 "http://www.w3.org/TR/2001/REC-SVG-20010904/DTD/svg10.dtd">
<svg version="1.0" xmlns="http://www.w3.org/2000/svg"
 width="327.000000pt" height="327.000000pt" viewBox="0 0 327.000000 327.000000"
 preserveAspectRatio="xMidYMid meet">
<metadata>
Created by potrace 1.14, written by Peter Selinger 2001-2017
</metadata>
<g transform="translate(0.000000,327.000000) scale(0.100000,-0.100000)"
fill="#000000" stroke="none">
<path d="M1389 2836 c-178 -38 -356 -162 -463 -325 -89 -136 -144 -328 -99
-345 24 -9 45 16 50 60 11 106 88 257 176 347 204 209 503 272 770 161 56 -24
151 -78 173 -99 6 -5 26 -24 46 -41 119 -104 200 -269 214 -433 3 -42 9 -79
13 -83 4 -4 51 -10 106 -12 67 -3 118 -12 155 -25 219 -82 337 -309 271 -517
-48 -148 -134 -235 -281 -284 -57 -19 -90 -22 -259 -24 l-194 -2 -31 -59 c-45
-87 -74 -121 -139 -171 -138 -103 -325 -116 -470 -31 -63 37 -140 124 -172
195 -15 34 -33 63 -39 63 -6 1 -103 2 -216 3 l-205 1 -65 31 c-148 70 -253
229 -266 399 -5 77 -15 96 -42 78 -25 -16 -21 -140 7 -224 49 -149 182 -283
326 -329 52 -17 61 -18 258 -19 l168 -1 16 -37 c8 -21 30 -57 49 -79 44 -55
32 -69 -48 -52 -49 10 -61 9 -96 -6 -62 -28 -97 -87 -93 -153 8 -145 188 -213
281 -106 33 37 38 64 15 83 -13 10 -23 6 -60 -29 -64 -59 -127 -56 -160 9 -42
82 16 165 102 145 17 -4 22 -14 25 -43 3 -32 7 -37 29 -40 22 -3 29 2 38 30 6
17 18 43 27 55 l15 23 32 -24 c46 -35 118 -65 190 -80 61 -12 62 -13 65 -47 3
-32 0 -36 -32 -47 -98 -36 -114 -190 -26 -254 58 -41 152 -24 209 38 31 33 33
40 29 89 -5 62 -37 111 -84 131 -28 12 -34 20 -34 44 0 17 1 30 3 30 1 1 20 3
42 6 61 9 140 39 191 74 26 17 53 29 60 26 7 -3 23 -28 35 -55 14 -34 27 -51
39 -51 27 0 43 26 37 59 -6 26 -3 30 22 36 66 14 113 -25 115 -98 1 -53 -46
-97 -104 -97 -33 0 -46 7 -77 40 -22 22 -43 36 -50 32 -35 -22 -1 -91 57 -117
120 -54 240 23 240 153 0 48 -43 116 -86 137 -34 16 -106 19 -139 6 -11 -5
-28 -4 -38 1 -16 8 -15 12 14 46 18 20 40 55 51 79 16 36 23 43 48 44 17 0 93
0 171 1 158 0 231 13 317 57 156 79 256 240 261 416 4 143 -38 245 -144 352
-100 101 -204 147 -340 152 -38 1 -71 4 -72 5 -2 1 -6 29 -9 62 -3 32 -17 93
-31 134 -75 231 -246 401 -483 481 -83 28 -111 32 -220 35 -79 2 -149 -2 -191
-10z m313 -2154 c58 -57 7 -154 -76 -146 -40 4 -67 34 -71 79 -3 32 1 43 28
68 26 24 37 28 66 23 19 -3 43 -14 53 -24z"/>
<path d="M704 2181 c-39 -24 -194 -187 -194 -204 0 -20 20 -36 37 -30 8 3 34
27 58 52 86 92 102 108 133 130 36 25 41 46 14 60 -14 7 -26 5 -48 -8z"/>
<path d="M1593 2166 c-98 -34 -140 -130 -98 -220 16 -34 80 -86 105 -86 5 0
10 -20 10 -44 l0 -44 -42 -4 c-24 -3 -44 -4 -45 -4 0 1 -4 16 -6 35 -6 36 -22
52 -44 44 -17 -7 -27 -46 -20 -75 5 -20 -3 -28 -61 -61 -58 -33 -69 -37 -89
-26 -12 7 -20 16 -17 20 6 10 -21 65 -36 74 -19 12 -40 -17 -40 -55 0 -35 -3
-40 -34 -50 -41 -13 -75 -2 -105 36 -37 47 -20 115 38 142 46 23 72 21 119
-11 28 -18 43 -22 55 -15 22 12 21 27 -3 56 -72 86 -230 57 -275 -51 -20 -48
-19 -83 4 -133 36 -79 109 -110 190 -81 43 15 71 14 71 -5 0 -5 -14 -27 -31
-48 -18 -22 -40 -63 -50 -92 l-18 -53 -87 -2 c-103 -2 -123 -15 -126 -79 -1
-49 6 -64 33 -64 21 0 31 18 33 58 1 26 2 26 65 24 35 -1 66 -3 67 -5 2 -2 6
-21 9 -42 4 -38 18 -55 43 -55 6 0 13 6 13 13 2 18 7 67 13 116 5 42 51 150
78 182 27 32 125 102 168 121 74 32 150 39 243 21 185 -34 313 -177 332 -371
6 -63 10 -72 35 -72 20 0 30 19 30 60 0 33 12 37 85 30 48 -5 50 -6 55 -40 4
-27 10 -36 28 -38 35 -5 46 42 26 110 -7 24 -34 30 -123 30 l-77 0 -23 59
c-13 33 -34 73 -47 88 -27 32 -29 42 -13 58 8 8 22 7 53 -3 168 -60 285 172
142 281 -65 49 -149 46 -212 -9 -33 -29 -37 -37 -28 -53 14 -22 39 -19 67 8
81 75 212 -19 165 -118 -18 -38 -68 -62 -111 -54 -29 6 -32 10 -34 45 0 21 -8
46 -17 54 -15 15 -17 15 -33 -1 -10 -9 -18 -27 -18 -40 -1 -13 -10 -35 -20
-48 l-19 -25 -68 45 c-64 44 -67 48 -68 86 0 23 -5 46 -12 53 -18 18 -45 -3
-52 -43 -6 -32 -9 -35 -34 -28 -15 4 -35 6 -44 5 -15 -1 -18 7 -18 41 0 40 2
43 43 62 57 27 91 91 83 155 -14 104 -109 168 -203 136z m98 -73 c62 -37 59
-131 -6 -161 -69 -31 -133 -2 -142 65 -7 50 9 80 50 98 43 19 63 18 98 -2z"/>
<path d="M440 1861 c-14 -27 -13 -58 3 -64 18 -7 31 2 45 30 10 17 9 25 -4 37
-20 21 -31 20 -44 -3z"/>
<path d="M1591 1599 c-285 -52 -335 -443 -73 -570 73 -36 178 -34 255 5 186
95 225 330 79 481 -65 68 -168 100 -261 84z m130 -70 c172 -52 207 -313 55
-417 -94 -64 -206 -58 -289 17 -97 87 -106 231 -20 330 62 73 156 99 254 70z"/>
</g>
</svg>
